<svg width="1912" height="383" viewBox="0 0 1912 383" fill="none" xmlns="http://www.w3.org/2000/svg">
<g clip-path="url(#clip0_3_2)">
<path d="M118.652 347.645C118.066 346.473 117.188 344.324 116.016 341.199C114.844 338.074 113.574 334.754 112.207 331.238C110.84 327.723 109.473 324.402 108.105 321.277C106.934 318.152 106.055 316.004 105.469 314.832C105.078 314.051 104.688 313.27 104.297 312.488C104.102 311.707 103.613 311.121 102.832 310.73C98.5352 314.832 93.75 319.129 88.4766 323.621C83.3984 328.113 77.9297 332.215 72.0703 335.926C66.4062 339.441 60.4492 342.371 54.1992 344.715C47.9492 346.863 41.6992 347.938 35.4492 347.938C28.6133 347.938 23.2422 345.594 19.3359 340.906C15.4297 336.023 12.4023 330.262 10.2539 323.621C8.10547 316.785 6.73828 309.852 6.15234 302.82C5.56641 295.789 5.27344 290.027 5.27344 285.535C5.27344 276.551 6.73828 268.445 9.66797 261.219C12.5977 253.797 16.6992 247.547 21.9727 242.469C27.4414 237.195 33.8867 233.191 41.3086 230.457C48.7305 227.723 57.0312 226.355 66.2109 226.355C72.6562 226.355 78.3203 227.918 83.2031 231.043C88.0859 233.973 92.1875 237.879 95.5078 242.762C99.0234 247.449 101.855 252.625 104.004 258.289C106.348 263.953 108.301 269.422 109.863 274.695C111.621 273.719 113.672 271.473 116.016 267.957C118.555 264.246 121.094 260.242 123.633 255.945C126.367 251.453 128.906 247.059 131.25 242.762C133.789 238.27 135.742 234.656 137.109 231.922C137.695 230.945 138.965 228.504 140.918 224.598C143.066 220.496 145.312 216.102 147.656 211.414C150.195 206.727 152.441 202.332 154.395 198.23C156.543 194.129 157.91 191.59 158.496 190.613C158.691 190.223 159.18 189.539 159.961 188.562C160.742 187.391 161.23 186.609 161.426 186.219C161.23 186.219 161.133 186.121 161.133 185.926V185.34V184.461C152.148 184.461 143.457 183.777 135.059 182.41C126.855 181.043 119.629 178.504 113.379 174.793C107.129 171.082 102.051 166.004 98.1445 159.559C94.4336 153.113 92.5781 144.617 92.5781 134.07C92.5781 133.484 92.5781 132.02 92.5781 129.676C92.7734 127.332 92.8711 125.77 92.8711 124.988C93.457 123.035 94.5312 121.473 96.0938 120.301C97.6562 118.934 99.4141 118.055 101.367 117.664C103.125 117.273 104.395 118.25 105.176 120.594C106.152 122.938 106.934 126.062 107.52 129.969C108.301 133.875 109.18 138.074 110.156 142.566C111.328 147.059 113.184 151.355 115.723 155.457C118.457 159.363 121.973 162.781 126.27 165.711C130.762 168.641 136.719 170.301 144.141 170.691C144.531 170.691 145.801 170.789 147.949 170.984C150.293 170.984 152.246 170.984 153.809 170.984C154.785 170.984 156.152 170.984 157.91 170.984C159.863 170.984 161.719 170.984 163.477 170.984C165.43 170.789 167.188 170.496 168.75 170.105C170.508 169.52 171.777 168.738 172.559 167.762C173.73 166.395 175.684 164.051 178.418 160.73C181.348 157.215 184.277 153.602 187.207 149.891C190.137 146.18 192.969 142.664 195.703 139.344C198.438 135.828 200.391 133.387 201.562 132.02C204.883 128.699 208.594 125.379 212.695 122.059C216.797 118.738 221.094 115.809 225.586 113.27C230.078 110.73 234.766 108.68 239.648 107.117C244.531 105.555 249.512 104.773 254.59 104.773C258.105 104.773 261.035 105.457 263.379 106.824C265.918 108.191 267.871 110.047 269.238 112.391C270.605 114.539 271.484 117.078 271.875 120.008C272.461 122.742 272.754 125.574 272.754 128.504C272.754 134.168 271.289 139.148 268.359 143.445C265.625 147.742 262.012 151.551 257.52 154.871C253.027 158.191 248.145 161.023 242.871 163.367C237.793 165.711 232.91 167.664 228.223 169.227C226.66 169.812 223.828 170.691 219.727 171.863C215.625 173.035 211.133 174.402 206.25 175.965C201.562 177.332 197.07 178.602 192.773 179.773C188.672 180.945 185.742 181.629 183.984 181.824C182.617 183.191 181.055 184.852 179.297 186.805C177.734 188.758 176.562 190.516 175.781 192.078L139.746 257.996C139.551 257.996 139.258 258.191 138.867 258.582C138.672 258.777 138.477 258.973 138.281 259.168C138.281 259.559 137.988 260.34 137.402 261.512C136.816 262.488 136.23 263.66 135.645 265.027C135.059 266.199 134.473 267.371 133.887 268.543C133.301 269.715 133.008 270.398 133.008 270.594C132.422 271.375 131.348 272.938 129.785 275.281C128.418 277.43 126.855 279.773 125.098 282.312C123.34 284.656 121.68 286.902 120.117 289.051C118.75 291.199 117.773 292.664 117.188 293.445V294.324V294.91C118.555 299.988 119.727 304.383 120.703 308.094C121.875 311.609 122.949 315.027 123.926 318.348C125.098 321.668 126.465 325.184 128.027 328.895C129.59 332.605 131.641 337 134.18 342.078C134.961 343.445 136.035 344.715 137.402 345.887C138.77 347.059 140.137 348.23 141.504 349.402C143.066 350.574 144.336 351.844 145.312 353.211C146.484 354.383 147.07 355.652 147.07 357.02C147.07 360.535 145.312 362.293 141.797 362.293C136.719 362.293 132.227 360.828 128.32 357.898C124.414 354.969 121.191 351.551 118.652 347.645ZM19.9219 282.605C19.9219 284.949 20.1172 288.855 20.5078 294.324C20.8984 299.598 21.6797 305.066 22.8516 310.73C24.2188 316.199 26.1719 321.082 28.7109 325.379C31.4453 329.676 35.0586 331.824 39.5508 331.824C44.8242 331.824 49.5117 330.652 53.6133 328.309C57.9102 325.965 62.4023 323.816 67.0898 321.863L97.2656 293.445V292.273C97.2656 288.758 96.3867 284.168 94.6289 278.504C93.0664 272.84 90.8203 267.273 87.8906 261.805C84.9609 256.336 81.543 251.746 77.6367 248.035C73.7305 244.129 69.5312 242.176 65.0391 242.176C58.5938 242.176 52.5391 242.957 46.875 244.52C41.4062 246.082 36.7188 248.523 32.8125 251.844C28.9062 255.164 25.7812 259.363 23.4375 264.441C21.0938 269.52 19.9219 275.574 19.9219 282.605ZM251.953 120.594C247.266 120.594 242.578 121.57 237.891 123.523C233.203 125.477 228.711 128.016 224.414 131.141C220.117 134.266 216.113 137.684 212.402 141.395C208.691 145.105 205.469 148.621 202.734 151.941C201.953 152.723 200.977 153.895 199.805 155.457C198.828 157.02 197.754 158.484 196.582 159.852C195.605 161.023 194.727 162.195 193.945 163.367C193.164 164.344 192.773 164.832 192.773 164.832V166.297H193.945C194.141 166.297 195.508 165.906 198.047 165.125C200.586 164.344 203.516 163.465 206.836 162.488C210.352 161.316 213.867 160.242 217.383 159.266C220.898 158.094 223.633 157.117 225.586 156.336C228.516 155.359 231.836 154.09 235.547 152.527C239.453 150.77 243.066 148.719 246.387 146.375C249.902 144.031 252.832 141.395 255.176 138.465C257.52 135.535 258.691 132.215 258.691 128.504C258.691 125.379 258.203 123.328 257.227 122.352C256.445 121.18 254.688 120.594 251.953 120.594ZM203.906 330.359C204.688 327.625 205.176 324.793 205.371 321.863C205.762 318.934 206.152 315.809 206.543 312.488C207.129 309.168 208.008 305.457 209.18 301.355C210.547 297.059 212.598 292.273 215.332 287C218.066 281.727 221.68 275.672 226.172 268.836C230.859 261.805 236.914 253.797 244.336 244.812C245.117 243.641 246.094 242.664 247.266 241.883C248.438 240.906 249.707 240.418 251.074 240.418C253.418 240.418 255.469 241.395 257.227 243.348C258.984 245.105 259.863 247.059 259.863 249.207C259.863 249.402 259.668 250.086 259.277 251.258C259.082 252.234 258.887 252.918 258.691 253.309C256.543 257.801 254.492 261.805 252.539 265.32C250.586 268.836 248.535 272.254 246.387 275.574C244.238 278.699 241.797 282.02 239.062 285.535C236.523 289.051 233.496 293.055 229.98 297.547C227.637 303.406 225.586 308.875 223.828 313.953C222.07 319.031 221.191 324.695 221.191 330.945C221.191 334.07 221.289 336.609 221.484 338.562C221.875 340.516 222.852 343.152 224.414 346.473H227.637C233.301 346.473 239.746 344.227 246.973 339.734C254.395 335.047 261.621 329.578 268.652 323.328C275.879 316.883 282.422 310.34 288.281 303.699C294.141 297.059 298.438 291.688 301.172 287.586C301.562 287.195 302.051 286.316 302.637 284.949C303.418 283.387 303.906 282.41 304.102 282.02C304.492 280.848 305.176 278.895 306.152 276.16C307.129 273.23 308.105 270.203 309.082 267.078C310.254 263.953 311.328 261.023 312.305 258.289C313.281 255.359 313.965 253.309 314.355 252.137C314.746 250.379 315.527 249.402 316.699 249.207C317.871 249.012 319.043 248.914 320.215 248.914C323.73 248.914 325.977 249.695 326.953 251.258C327.93 252.625 328.418 254.969 328.418 258.289V263.27C326.465 268.543 324.707 273.426 323.145 277.918C321.777 282.41 320.41 286.805 319.043 291.102C317.871 295.398 316.992 299.695 316.406 303.992C315.82 308.289 315.527 312.977 315.527 318.055C315.527 318.641 315.43 320.008 315.234 322.156C315.234 324.305 315.332 326.551 315.527 328.895C315.918 331.043 316.504 333.094 317.285 335.047C318.262 336.805 319.629 337.684 321.387 337.684C326.074 337.684 330.859 337.098 335.742 335.926C340.82 334.559 345.898 332.898 350.977 330.945C356.055 328.797 360.84 326.453 365.332 323.914C370.02 321.375 374.414 318.836 378.516 316.297C379.492 315.906 380.664 315.027 382.031 313.66C383.398 312.293 384.863 311.023 386.426 309.852C387.988 308.484 389.551 307.312 391.113 306.336C392.676 305.359 394.141 304.871 395.508 304.871C399.414 304.871 401.367 306.824 401.367 310.73C401.367 313.66 399.609 316.785 396.094 320.105C392.578 323.23 388.086 326.355 382.617 329.48C377.344 332.605 371.387 335.535 364.746 338.27C358.105 341.004 351.66 343.445 345.41 345.594C339.355 347.547 333.887 349.207 329.004 350.574C324.121 351.746 320.605 352.332 318.457 352.332C317.676 352.332 316.211 352.332 314.062 352.332C312.109 352.137 310.742 352.039 309.961 352.039C306.836 351.258 304.395 349.5 302.637 346.766C300.879 344.031 299.512 341.004 298.535 337.684C297.754 334.168 297.266 330.75 297.07 327.43C296.875 323.914 296.777 321.082 296.777 318.934C296.191 319.324 295.41 319.812 294.434 320.398C293.652 320.789 293.164 321.277 292.969 321.863C291.406 323.23 288.77 325.379 285.059 328.309C281.543 331.043 277.637 334.07 273.34 337.391C269.238 340.516 265.332 343.445 261.621 346.18C258.105 348.914 255.664 350.867 254.297 352.039C250.391 354.969 246.094 357.41 241.406 359.363C236.719 361.316 231.934 362.293 227.051 362.293C221.973 362.293 217.969 361.512 215.039 359.949C212.109 358.191 209.766 355.945 208.008 353.211C206.445 350.281 205.371 346.863 204.785 342.957C204.199 339.051 203.906 334.852 203.906 330.359ZM395.801 321.863C396.777 311.902 399.023 302.43 402.539 293.445C406.25 284.461 410.449 276.746 415.137 270.301C420.02 263.855 424.902 258.875 429.785 255.359C434.863 251.844 439.258 250.77 442.969 252.137C443.945 251.551 444.727 251.062 445.312 250.672C446.094 250.086 446.68 249.598 447.07 249.207C447.656 248.621 448.242 248.23 448.828 248.035C449.609 247.645 450.684 247.449 452.051 247.449C454.785 247.449 457.227 248.328 459.375 250.086C461.523 251.844 463.379 253.992 464.941 256.531C466.699 259.07 467.969 261.805 468.75 264.734C469.727 267.469 470.215 270.008 470.215 272.352C470.215 274.891 469.238 276.648 467.285 277.625C465.332 278.602 463.086 279.09 460.547 279.09C458.984 279.09 457.617 278.797 456.445 278.211C455.273 277.43 454.199 276.551 453.223 275.574C452.441 274.598 451.562 273.621 450.586 272.645C449.609 271.668 448.34 270.984 446.777 270.594H446.484H445.605C445.41 270.789 444.922 271.277 444.141 272.059C443.555 272.645 443.164 273.133 442.969 273.523C438.867 278.406 435.059 282.801 431.543 286.707C428.027 290.418 424.902 294.227 422.168 298.133C419.629 302.039 417.578 306.238 416.016 310.73C414.648 315.223 413.965 320.594 413.965 326.844C413.965 327.43 413.965 328.309 413.965 329.48C413.965 330.652 413.965 331.824 413.965 332.996C414.16 334.168 414.258 335.34 414.258 336.512C414.258 337.684 414.258 338.562 414.258 339.148C414.648 341.102 415.723 342.566 417.48 343.543C419.434 344.52 421.191 345.496 422.754 346.473C423.34 346.473 424.805 346.57 427.148 346.766C429.492 346.766 430.859 346.766 431.25 346.766C438.281 346.766 446.582 345.691 456.152 343.543C465.723 341.199 475.293 338.172 484.863 334.461C494.629 330.75 503.809 326.355 512.402 321.277C520.996 316.004 527.832 310.535 532.91 304.871C534.082 303.309 535.059 301.16 535.84 298.426C536.816 295.691 537.793 293.055 538.77 290.516C539.941 287.781 541.211 285.438 542.578 283.484C543.945 281.531 545.996 280.555 548.73 280.555C551.27 280.555 552.832 281.629 553.418 283.777C554.199 285.73 554.59 287.684 554.59 289.637C554.59 295.887 553.027 301.551 549.902 306.629C546.973 311.707 543.262 316.297 538.77 320.398C534.277 324.5 529.297 328.113 523.828 331.238C518.555 334.363 513.477 337 508.594 339.148C507.227 339.539 504.199 340.613 499.512 342.371C495.02 344.129 490.137 345.984 484.863 347.938C479.59 349.891 474.414 351.844 469.336 353.797C464.453 355.555 460.84 356.922 458.496 357.898C455.371 358.875 452.734 359.656 450.586 360.242C448.438 360.633 446.484 361.023 444.727 361.414C442.969 361.805 441.113 362 439.16 362C437.402 362.195 435.254 362.293 432.715 362.293C425.684 362.293 419.824 361.414 415.137 359.656C410.645 357.898 407.031 355.359 404.297 352.039C401.562 348.523 399.512 344.324 398.145 339.441C396.973 334.363 396.191 328.504 395.801 321.863ZM549.316 353.211C549.316 352.625 549.316 351.16 549.316 348.816C549.316 346.473 549.316 344.91 549.316 344.129C545.996 332.41 545.508 320.887 547.852 309.559C550.391 298.23 554.785 288.074 561.035 279.09C567.48 269.91 575.586 262.293 585.352 256.238C595.312 249.988 606.152 246.18 617.871 244.812H623.145C627.441 244.812 630.957 245.789 633.691 247.742C636.621 249.5 638.867 251.844 640.43 254.773C642.188 257.703 643.359 261.023 643.945 264.734C644.727 268.445 645.117 272.156 645.117 275.867C645.117 280.945 644.531 285.926 643.359 290.809C642.383 295.496 641.211 300.281 639.844 305.164C638.672 310.047 637.5 314.93 636.328 319.812C635.352 324.5 634.863 329.48 634.863 334.754V336.512C635.059 336.902 635.254 338.074 635.449 340.027C635.84 341.785 636.133 342.859 636.328 343.25C636.719 343.25 637.695 343.348 639.258 343.543C640.82 343.543 641.797 343.543 642.188 343.543C644.141 343.543 645.996 343.543 647.754 343.543C649.707 343.348 651.66 342.859 653.613 342.078L709.277 316.297C709.473 316.297 709.766 316.297 710.156 316.297C710.742 316.102 711.133 316.004 711.328 316.004C713.281 316.004 714.844 316.59 716.016 317.762C717.383 318.934 718.066 320.496 718.066 322.449C718.066 323.426 717.969 324.402 717.773 325.379C717.773 326.16 717.285 326.941 716.309 327.723C714.941 328.699 712.402 330.066 708.691 331.824C705.176 333.582 701.367 335.535 697.266 337.684C693.164 339.832 689.258 341.883 685.547 343.836C682.031 345.789 679.492 347.059 677.93 347.645C675.195 349.207 672.168 350.672 668.848 352.039C665.527 353.211 662.109 354.383 658.594 355.555C655.078 356.727 651.562 357.703 648.047 358.484C644.727 359.07 641.699 359.363 638.965 359.363C634.668 359.363 631.152 358.68 628.418 357.312C625.684 355.75 623.633 353.797 622.266 351.453C620.898 348.914 619.922 345.984 619.336 342.664C618.945 339.148 618.945 335.535 619.336 331.824C615.43 334.949 611.23 338.27 606.738 341.785C602.246 345.301 597.559 348.523 592.676 351.453C587.793 354.383 582.812 356.922 577.734 359.07C572.656 361.219 567.48 362.293 562.207 362.293C559.277 362.293 556.641 361.609 554.297 360.242C551.953 358.68 550.293 356.336 549.316 353.211ZM565.137 347.059C569.629 347.059 574.609 345.789 580.078 343.25C585.547 340.516 590.918 337.195 596.191 333.289C601.465 329.383 606.25 325.281 610.547 320.984C614.844 316.492 618.164 312.488 620.508 308.973C620.703 303.113 621.484 297.547 622.852 292.273C624.414 286.805 625.195 281.238 625.195 275.574C625.195 275.184 625.098 274.598 624.902 273.816C624.902 273.035 624.902 272.449 624.902 272.059C622.363 269.91 620.215 268.641 618.457 268.25C616.699 267.859 614.355 267.664 611.426 267.664C611.035 267.664 610.156 267.664 608.789 267.664C607.617 267.664 606.836 267.762 606.445 267.957C605.273 268.934 603.32 270.789 600.586 273.523C597.852 276.062 594.922 278.895 591.797 282.02C588.867 285.145 586.035 288.074 583.301 290.809C580.762 293.543 579.004 295.398 578.027 296.375C577.832 296.375 577.441 296.766 576.855 297.547C576.27 298.133 575.586 298.914 574.805 299.891C574.219 300.867 573.633 301.844 573.047 302.82C572.656 303.602 572.363 304.285 572.168 304.871L565.137 339.148V347.059ZM719.238 320.691C717.676 321.473 716.016 321.961 714.258 322.156C712.5 322.156 710.742 322.156 708.984 322.156C707.227 322.156 705.469 322.254 703.711 322.449C701.953 322.449 700.195 322.84 698.438 323.621C695.117 324.012 692.969 323.816 691.992 323.035C691.016 322.059 690.723 320.789 691.113 319.227C691.504 317.664 692.578 315.906 694.336 313.953C696.094 312 698.145 310.34 700.488 308.973C702.637 307.605 704.98 306.629 707.52 306.043C710.254 305.457 712.695 305.555 714.844 306.336C713.867 302.82 713.965 299.793 715.137 297.254C716.309 294.715 718.652 293.445 722.168 293.445C723.926 293.445 725.488 293.641 726.855 294.031C728.418 294.227 729.59 295.008 730.371 296.375C733.301 294.617 737.207 291.688 742.09 287.586C746.973 283.289 751.953 278.992 757.031 274.695C762.305 270.203 767.09 266.297 771.387 262.977C775.684 259.461 778.613 257.703 780.176 257.703C780.762 257.703 781.543 257.801 782.52 257.996C783.496 257.996 784.473 258.191 785.449 258.582C786.621 258.973 787.5 259.461 788.086 260.047C788.867 260.438 789.258 261.121 789.258 262.098V274.695C787.891 280.164 786.523 285.34 785.156 290.223C783.984 294.91 782.91 299.598 781.934 304.285C781.152 308.777 780.566 313.367 780.176 318.055C779.785 322.742 779.59 327.723 779.59 332.996C782.715 332.996 786.426 332.312 790.723 330.945C795.215 329.578 799.707 327.918 804.199 325.965C808.691 324.012 812.891 322.059 816.797 320.105C820.703 317.957 823.828 316.199 826.172 314.832C826.562 314.637 827.441 313.953 828.809 312.781C830.176 311.609 831.641 310.438 833.203 309.266C834.766 307.898 836.23 306.727 837.598 305.75C839.16 304.578 840.137 303.797 840.527 303.406C840.918 303.016 841.895 302.527 843.457 301.941C845.02 301.16 845.898 300.672 846.094 300.477C846.875 300.281 847.559 300.574 848.145 301.355C848.926 301.941 849.609 302.723 850.195 303.699C850.781 304.48 851.172 305.359 851.367 306.336C851.758 307.117 851.953 307.605 851.953 307.801C851.953 309.754 851.172 311.707 849.609 313.66C848.047 315.613 846.191 317.469 844.043 319.227C841.895 320.789 839.648 322.352 837.305 323.914C835.156 325.281 833.496 326.551 832.324 327.723C830.762 328.504 828.027 329.773 824.121 331.531C820.41 333.289 816.406 335.145 812.109 337.098C807.812 339.051 803.711 340.906 799.805 342.664C796.094 344.422 793.457 345.691 791.895 346.473C791.504 346.668 790.625 346.961 789.258 347.352C787.891 347.547 786.426 347.938 784.863 348.523C783.301 349.109 781.738 349.598 780.176 349.988C778.809 350.184 777.93 350.379 777.539 350.574C775.781 351.16 774.414 352.137 773.438 353.504C772.656 354.871 771.777 356.238 770.801 357.605C770.02 358.973 768.945 360.145 767.578 361.121C766.406 362.098 764.453 362.391 761.719 362C761.523 361.805 760.645 361.414 759.082 360.828C757.715 360.047 756.836 359.461 756.445 359.07C751.758 355.75 747.754 352.625 744.434 349.695C741.113 346.766 738.086 343.934 735.352 341.199C732.617 338.27 729.98 335.145 727.441 331.824C725.098 328.504 722.363 324.793 719.238 320.691ZM737.695 308.973C739.062 311.902 740.332 314.734 741.504 317.469C742.871 320.203 744.434 322.84 746.191 325.379C747.949 327.723 749.902 329.773 752.051 331.531C754.395 333.289 757.227 334.363 760.547 334.754C760.938 331.824 761.426 328.309 762.012 324.207C762.598 320.105 763.281 315.809 764.062 311.316C764.844 306.824 765.723 302.43 766.699 298.133C767.871 293.641 769.141 289.734 770.508 286.414H767.578C764.453 288.562 761.523 290.711 758.789 292.859C756.25 294.812 753.711 296.766 751.172 298.719C748.633 300.477 746.582 302.039 745.02 303.406C744.824 303.602 744.531 303.895 744.141 304.285C743.75 304.676 743.457 304.871 743.262 304.871C743.066 305.262 742.188 305.945 740.625 306.922C739.062 307.898 738.086 308.582 737.695 308.973ZM770.508 282.02C769.922 282.02 769.629 282.508 769.629 283.484C769.629 284.266 769.922 284.656 770.508 284.656C771.289 284.656 771.68 284.266 771.68 283.484C771.68 282.508 771.289 282.02 770.508 282.02ZM1020.7 184.754L1022.46 181.824L1029.49 149.305C1030.08 146.961 1031.05 145.594 1032.42 145.203C1033.98 144.812 1035.55 144.617 1037.11 144.617C1041.02 144.617 1043.36 145.496 1044.14 147.254C1044.92 149.012 1045.31 151.746 1045.31 155.457C1045.31 156.238 1045.21 157.312 1045.02 158.68C1045.02 159.852 1045.02 160.438 1045.02 160.438L1020.7 253.309V255.945C1020.7 257.117 1020.9 258.094 1021.29 258.875C1021.88 259.656 1023.14 259.754 1025.1 259.168C1030.37 258.973 1036.04 258.777 1042.09 258.582C1048.34 258.191 1054.79 257.605 1061.43 256.824C1068.07 255.848 1074.51 254.48 1080.76 252.723C1087.01 250.77 1092.58 248.23 1097.46 245.105C1102.34 241.785 1106.25 237.684 1109.18 232.801C1112.3 227.723 1113.87 221.57 1113.87 214.344C1113.87 205.164 1111.33 195.984 1106.25 186.805C1101.37 177.625 1095.12 169.227 1087.5 161.609C1079.88 153.992 1071.39 147.84 1062.01 143.152C1052.64 138.465 1043.46 136.121 1034.47 136.121C1029.98 136.121 1025.98 137.098 1022.46 139.051C1019.14 140.809 1016.11 142.762 1013.38 144.91C1010.64 146.863 1008.01 148.816 1005.47 150.77C1002.93 152.527 1000.49 153.406 998.145 153.406C994.238 153.406 992.285 151.453 992.285 147.547C992.285 147.352 992.285 147.156 992.285 146.961C992.48 146.766 992.578 146.57 992.578 146.375C994.141 142.273 996.387 138.66 999.316 135.535C1002.25 132.41 1005.47 129.676 1008.98 127.332C1012.7 124.988 1016.6 123.328 1020.7 122.352C1025 121.18 1029.2 120.594 1033.3 120.594C1036.43 120.594 1039.36 120.594 1042.09 120.594C1045.02 120.594 1048.05 121.082 1051.17 122.059C1060.74 126.355 1070.21 131.434 1079.59 137.293C1089.16 142.957 1097.75 149.598 1105.37 157.215C1112.99 164.637 1119.14 173.23 1123.83 182.996C1128.52 192.566 1130.86 203.113 1130.86 214.637C1130.86 223.816 1129 231.629 1125.29 238.074C1121.58 244.324 1116.6 249.598 1110.35 253.895C1104.1 258.191 1096.97 261.512 1088.96 263.855C1081.15 266.199 1073.05 267.957 1064.65 269.129C1056.25 270.105 1047.95 270.691 1039.75 270.887C1031.74 270.887 1024.51 270.789 1018.07 270.594L1016.89 272.059L995.215 354.969C994.629 357.117 993.359 358.875 991.406 360.242C989.453 361.414 987.402 362 985.254 362C983.887 362 982.812 361.512 982.031 360.535C981.25 359.559 980.664 358.484 980.273 357.312C979.883 356.141 979.59 354.871 979.395 353.504C979.395 352.137 979.492 351.16 979.688 350.574L1020.7 184.754ZM1139.94 316.297C1140.33 315.125 1140.92 313.074 1141.7 310.145C1142.68 307.02 1143.55 303.699 1144.34 300.184C1145.31 296.668 1146.09 293.348 1146.68 290.223C1147.46 286.902 1148.05 284.656 1148.44 283.484C1149.61 278.797 1150.98 273.719 1152.54 268.25C1154.3 262.781 1156.64 257.703 1159.57 253.016C1162.5 248.328 1166.21 244.52 1170.7 241.59C1175.39 238.465 1181.15 236.902 1187.99 236.902C1190.53 236.902 1192.29 237.879 1193.26 239.832C1194.43 241.59 1195.41 243.543 1196.19 245.691C1196.19 246.473 1196.19 247.938 1196.19 250.086C1196.39 252.039 1196.48 253.406 1196.48 254.188C1196.48 262.586 1195.61 270.008 1193.85 276.453C1192.29 282.898 1189.75 288.855 1186.23 294.324C1182.91 299.793 1178.81 304.969 1173.93 309.852C1169.04 314.539 1163.48 319.52 1157.23 324.793C1157.03 325.379 1156.74 326.355 1156.35 327.723C1155.96 329.09 1155.76 330.066 1155.76 330.652V331.238C1155.76 334.754 1156.35 337.586 1157.52 339.734C1158.69 341.883 1160.25 343.641 1162.21 345.008C1164.36 346.18 1166.7 346.961 1169.24 347.352C1171.97 347.547 1174.9 347.645 1178.03 347.645C1187.21 347.645 1196 346.375 1204.39 343.836C1212.79 341.297 1220.51 337.195 1227.54 331.531C1228.52 330.555 1229.69 329.188 1231.05 327.43C1232.62 325.477 1234.18 323.523 1235.74 321.57C1237.3 319.617 1238.96 317.957 1240.72 316.59C1242.48 315.027 1244.34 314.246 1246.29 314.246C1248.24 314.246 1249.41 315.027 1249.8 316.59C1250.2 318.152 1250.39 319.715 1250.39 321.277C1250.39 325.574 1249.02 329.676 1246.29 333.582C1243.75 337.293 1240.33 340.711 1236.04 343.836C1231.93 346.766 1227.15 349.402 1221.68 351.746C1216.41 354.09 1211.13 356.043 1205.86 357.605C1200.59 359.168 1195.51 360.34 1190.62 361.121C1185.94 361.902 1181.93 362.293 1178.61 362.293C1168.26 362.293 1159.57 360.633 1152.54 357.312C1145.7 353.797 1141.02 346.863 1138.48 336.512L1139.94 316.297ZM1181.84 258.582C1177.93 262.098 1174.8 265.32 1172.46 268.25C1170.31 270.984 1168.55 273.914 1167.19 277.039C1166.02 279.969 1164.94 283.191 1163.96 286.707C1163.18 290.223 1162.3 294.324 1161.33 299.012C1165.04 296.082 1168.07 293.152 1170.41 290.223C1172.95 287.293 1175 284.266 1176.56 281.141C1178.12 278.016 1179.3 274.695 1180.08 271.18C1180.86 267.469 1181.45 263.27 1181.84 258.582ZM1237.21 327.137C1242.68 323.035 1246.68 319.031 1249.22 315.125C1251.95 311.219 1254.1 307.312 1255.66 303.406C1257.23 299.5 1258.5 295.398 1259.47 291.102C1260.45 286.609 1262.01 281.727 1264.16 276.453C1263.38 275.086 1262.89 273.914 1262.7 272.938C1262.7 271.766 1262.7 270.398 1262.7 268.836C1262.7 267.273 1262.89 265.418 1263.28 263.27C1263.87 261.121 1264.65 259.168 1265.62 257.41C1266.6 255.457 1267.77 253.797 1269.14 252.43C1270.51 251.062 1272.17 250.379 1274.12 250.379C1273.93 251.16 1275 252.039 1277.34 253.016C1279.88 253.992 1282.91 255.066 1286.43 256.238C1290.14 257.41 1294.04 258.68 1298.14 260.047C1302.25 261.414 1305.86 262.879 1308.98 264.441C1312.5 266.395 1314.94 268.543 1316.31 270.887C1317.87 273.035 1318.65 276.16 1318.65 280.262C1318.65 283.973 1318.16 288.172 1317.19 292.859C1316.41 297.547 1315.53 302.332 1314.55 307.215C1313.77 311.902 1312.89 316.688 1311.91 321.57C1311.13 326.258 1310.74 330.555 1310.74 334.461V342.078C1310.55 343.836 1310.94 344.812 1311.91 345.008C1313.09 345.008 1314.16 345.008 1315.14 345.008C1317.48 345.008 1319.63 344.617 1321.58 343.836C1323.54 343.055 1325.49 342.176 1327.44 341.199C1329.59 340.223 1331.64 339.344 1333.59 338.562C1335.55 337.586 1337.6 336.902 1339.75 336.512L1365.53 320.691C1366.31 319.324 1367.29 318.25 1368.46 317.469C1369.82 316.492 1371.09 315.613 1372.27 314.832C1374.22 313.66 1376.56 312 1379.3 309.852C1380.66 308.68 1382.13 307.508 1383.69 306.336H1392.48C1393.07 306.336 1393.46 306.922 1393.65 308.094C1393.85 309.266 1393.95 310.145 1393.95 310.73C1393.95 313.074 1392.29 316.004 1388.96 319.52C1385.64 323.035 1381.35 326.648 1376.07 330.359C1370.8 334.07 1364.94 337.781 1358.5 341.492C1352.05 345.008 1345.7 348.23 1339.45 351.16C1333.4 354.09 1327.73 356.434 1322.46 358.191C1317.38 359.949 1313.48 360.828 1310.74 360.828C1307.23 360.828 1304.39 359.949 1302.25 358.191C1300.1 356.434 1298.34 354.285 1296.97 351.746C1295.61 349.207 1294.63 346.473 1294.04 343.543C1293.65 340.418 1293.46 337.391 1293.46 334.461C1293.46 332.312 1294.14 329.285 1295.51 325.379C1296.88 321.473 1298.44 317.469 1300.2 313.367C1301.95 309.266 1303.52 305.262 1304.88 301.355C1306.25 297.449 1306.93 294.324 1306.93 291.98C1306.93 291.785 1305.47 291.004 1302.54 289.637C1299.8 288.27 1296.78 286.805 1293.46 285.242C1290.14 283.484 1287.01 282.02 1284.08 280.848C1281.35 279.48 1279.98 278.699 1279.98 278.504C1275.68 282.996 1272.66 287.781 1270.9 292.859C1269.34 297.938 1267.68 303.211 1265.92 308.68C1264.36 314.148 1261.91 319.617 1258.59 325.086C1255.47 330.555 1250.1 335.926 1242.48 341.199C1242.29 341.199 1241.89 341.102 1241.31 340.906C1240.53 340.711 1239.84 340.223 1239.26 339.441C1238.48 338.465 1237.89 337.098 1237.5 335.34C1237.11 333.387 1237.01 330.652 1237.21 327.137ZM1381.35 316.297C1381.74 315.125 1382.32 313.074 1383.11 310.145C1384.08 307.02 1384.96 303.699 1385.74 300.184C1386.72 296.668 1387.5 293.348 1388.09 290.223C1388.87 286.902 1389.45 284.656 1389.84 283.484C1391.02 278.797 1392.38 273.719 1393.95 268.25C1395.7 262.781 1398.05 257.703 1400.98 253.016C1403.91 248.328 1407.62 244.52 1412.11 241.59C1416.8 238.465 1422.56 236.902 1429.39 236.902C1431.93 236.902 1433.69 237.879 1434.67 239.832C1435.84 241.59 1436.82 243.543 1437.6 245.691C1437.6 246.473 1437.6 247.938 1437.6 250.086C1437.79 252.039 1437.89 253.406 1437.89 254.188C1437.89 262.586 1437.01 270.008 1435.25 276.453C1433.69 282.898 1431.15 288.855 1427.64 294.324C1424.32 299.793 1420.21 304.969 1415.33 309.852C1410.45 314.539 1404.88 319.52 1398.63 324.793C1398.44 325.379 1398.14 326.355 1397.75 327.723C1397.36 329.09 1397.17 330.066 1397.17 330.652V331.238C1397.17 334.754 1397.75 337.586 1398.93 339.734C1400.1 341.883 1401.66 343.641 1403.61 345.008C1405.76 346.18 1408.11 346.961 1410.64 347.352C1413.38 347.547 1416.31 347.645 1419.43 347.645C1428.61 347.645 1437.4 346.375 1445.8 343.836C1454.2 341.297 1461.91 337.195 1468.95 331.531C1469.92 330.555 1471.09 329.188 1472.46 327.43C1474.02 325.477 1475.59 323.523 1477.15 321.57C1478.71 319.617 1480.37 317.957 1482.13 316.59C1483.89 315.027 1485.74 314.246 1487.7 314.246C1489.65 314.246 1490.82 315.027 1491.21 316.59C1491.6 318.152 1491.8 319.715 1491.8 321.277C1491.8 325.574 1490.43 329.676 1487.7 333.582C1485.16 337.293 1481.74 340.711 1477.44 343.836C1473.34 346.766 1468.55 349.402 1463.09 351.746C1457.81 354.09 1452.54 356.043 1447.27 357.605C1441.99 359.168 1436.91 360.34 1432.03 361.121C1427.34 361.902 1423.34 362.293 1420.02 362.293C1409.67 362.293 1400.98 360.633 1393.95 357.312C1387.11 353.797 1382.42 346.863 1379.88 336.512L1381.35 316.297ZM1423.24 258.582C1419.34 262.098 1416.21 265.32 1413.87 268.25C1411.72 270.984 1409.96 273.914 1408.59 277.039C1407.42 279.969 1406.35 283.191 1405.37 286.707C1404.59 290.223 1403.71 294.324 1402.73 299.012C1406.45 296.082 1409.47 293.152 1411.82 290.223C1414.36 287.293 1416.41 284.266 1417.97 281.141C1419.53 278.016 1420.7 274.695 1421.48 271.18C1422.27 267.469 1422.85 263.27 1423.24 258.582ZM1491.5 300.477C1491.7 299.5 1492.29 297.742 1493.26 295.203C1494.24 292.664 1495.21 289.93 1496.19 287C1497.36 284.07 1498.44 281.336 1499.41 278.797C1500.39 276.258 1501.07 274.5 1501.46 273.523C1502.64 270.398 1503.71 268.348 1504.69 267.371C1505.86 266.395 1507.91 265.906 1510.84 265.906C1513.96 265.906 1516.02 266.98 1516.99 269.129C1517.97 271.277 1518.46 273.816 1518.46 276.746C1518.46 281.824 1517.68 286.512 1516.11 290.809C1514.75 294.91 1513.18 299.109 1511.43 303.406C1509.67 307.508 1508.01 312 1506.45 316.883C1505.08 321.57 1504.39 327.039 1504.39 333.289C1504.39 334.07 1504.39 335.242 1504.39 336.805C1504.39 338.172 1504.49 339.637 1504.69 341.199C1504.88 342.566 1505.27 343.836 1505.86 345.008C1506.45 345.984 1507.23 346.473 1508.2 346.473C1513.28 346.473 1518.36 345.496 1523.44 343.543C1528.71 341.395 1533.79 338.953 1538.67 336.219C1543.75 333.289 1548.54 330.164 1553.03 326.844C1557.71 323.328 1561.91 320.301 1565.62 317.762C1566.99 316.785 1567.97 315.809 1568.55 314.832C1569.34 313.855 1570.02 312.977 1570.61 312.195C1571.19 311.219 1571.88 310.438 1572.66 309.852C1573.63 309.07 1575.1 308.68 1577.05 308.68C1579.59 308.68 1581.64 309.266 1583.2 310.438C1584.96 311.414 1585.84 313.27 1585.84 316.004C1585.84 317.176 1585.74 318.25 1585.55 319.227C1585.55 320.203 1585.06 321.082 1584.08 321.863C1583.89 322.449 1583.11 323.23 1581.74 324.207C1580.57 325.184 1579.3 326.258 1577.93 327.43C1576.56 328.406 1575.29 329.383 1574.12 330.359C1572.95 331.141 1572.07 331.629 1571.48 331.824C1571.29 331.824 1570.7 332.117 1569.73 332.703C1568.95 333.094 1568.46 333.289 1568.26 333.289C1568.07 333.484 1567.77 333.777 1567.38 334.168C1567.19 334.363 1567.09 334.559 1567.09 334.754C1562.99 337.879 1558.5 341.102 1553.61 344.422C1548.93 347.547 1543.95 350.477 1538.67 353.211C1533.4 355.75 1527.93 357.898 1522.27 359.656C1516.8 361.414 1511.33 362.293 1505.86 362.293C1501.17 362.293 1497.56 361.121 1495.02 358.777C1492.68 356.238 1490.92 353.113 1489.75 349.402C1488.57 345.691 1487.89 341.785 1487.7 337.684C1487.5 333.582 1487.4 329.871 1487.4 326.551L1491.5 300.477ZM1505.57 223.426C1505.57 219.91 1506.25 217.566 1507.62 216.395C1508.98 215.223 1511.43 214.637 1514.94 214.637C1516.7 214.637 1518.46 215.027 1520.21 215.809C1521.97 216.395 1522.85 217.957 1522.85 220.496C1522.85 223.035 1521.58 225.379 1519.04 227.527C1516.7 229.676 1514.36 230.75 1512.01 230.75C1509.67 230.75 1508.01 230.066 1507.03 228.699C1506.05 227.137 1505.57 225.379 1505.57 223.426ZM1583.2 327.137C1588.67 323.035 1592.68 319.031 1595.21 315.125C1597.95 311.219 1600.1 307.312 1601.66 303.406C1603.22 299.5 1604.49 295.398 1605.47 291.102C1606.45 286.609 1608.01 281.727 1610.16 276.453C1609.38 275.086 1608.89 273.914 1608.69 272.938C1608.69 271.766 1608.69 270.398 1608.69 268.836C1608.69 267.273 1608.89 265.418 1609.28 263.27C1609.86 261.121 1610.64 259.168 1611.62 257.41C1612.6 255.457 1613.77 253.797 1615.14 252.43C1616.5 251.062 1618.16 250.379 1620.12 250.379C1619.92 251.16 1621 252.039 1623.34 253.016C1625.88 253.992 1628.91 255.066 1632.42 256.238C1636.13 257.41 1640.04 258.68 1644.14 260.047C1648.24 261.414 1651.86 262.879 1654.98 264.441C1658.5 266.395 1660.94 268.543 1662.3 270.887C1663.87 273.035 1664.65 276.16 1664.65 280.262C1664.65 283.973 1664.16 288.172 1663.18 292.859C1662.4 297.547 1661.52 302.332 1660.55 307.215C1659.77 311.902 1658.89 316.688 1657.91 321.57C1657.13 326.258 1656.74 330.555 1656.74 334.461V342.078C1656.54 343.836 1656.93 344.812 1657.91 345.008C1659.08 345.008 1660.16 345.008 1661.13 345.008C1663.48 345.008 1665.62 344.617 1667.58 343.836C1669.53 343.055 1671.48 342.176 1673.44 341.199C1675.59 340.223 1677.64 339.344 1679.59 338.562C1681.54 337.586 1683.59 336.902 1685.74 336.512L1711.52 320.691C1712.3 319.324 1713.28 318.25 1714.45 317.469C1715.82 316.492 1717.09 315.613 1718.26 314.832C1720.21 313.66 1722.56 312 1725.29 309.852C1726.66 308.68 1728.12 307.508 1729.69 306.336H1738.48C1739.06 306.336 1739.45 306.922 1739.65 308.094C1739.84 309.266 1739.94 310.145 1739.94 310.73C1739.94 313.074 1738.28 316.004 1734.96 319.52C1731.64 323.035 1727.34 326.648 1722.07 330.359C1716.8 334.07 1710.94 337.781 1704.49 341.492C1698.05 345.008 1691.7 348.23 1685.45 351.16C1679.39 354.09 1673.73 356.434 1668.46 358.191C1663.38 359.949 1659.47 360.828 1656.74 360.828C1653.22 360.828 1650.39 359.949 1648.24 358.191C1646.09 356.434 1644.34 354.285 1642.97 351.746C1641.6 349.207 1640.62 346.473 1640.04 343.543C1639.65 340.418 1639.45 337.391 1639.45 334.461C1639.45 332.312 1640.14 329.285 1641.5 325.379C1642.87 321.473 1644.43 317.469 1646.19 313.367C1647.95 309.266 1649.51 305.262 1650.88 301.355C1652.25 297.449 1652.93 294.324 1652.93 291.98C1652.93 291.785 1651.46 291.004 1648.54 289.637C1645.8 288.27 1642.77 286.805 1639.45 285.242C1636.13 283.484 1633.01 282.02 1630.08 280.848C1627.34 279.48 1625.98 278.699 1625.98 278.504C1621.68 282.996 1618.65 287.781 1616.89 292.859C1615.33 297.938 1613.67 303.211 1611.91 308.68C1610.35 314.148 1607.91 319.617 1604.59 325.086C1601.46 330.555 1596.09 335.926 1588.48 341.199C1588.28 341.199 1587.89 341.102 1587.3 340.906C1586.52 340.711 1585.84 340.223 1585.25 339.441C1584.47 338.465 1583.89 337.098 1583.5 335.34C1583.11 333.387 1583.01 330.652 1583.2 327.137ZM1729.1 353.211C1729.1 352.625 1729.1 351.16 1729.1 348.816C1729.1 346.473 1729.1 344.91 1729.1 344.129C1725.78 332.41 1725.29 320.887 1727.64 309.559C1730.18 298.23 1734.57 288.074 1740.82 279.09C1747.27 269.91 1755.37 262.293 1765.14 256.238C1775.1 249.988 1785.94 246.18 1797.66 244.812H1802.93C1807.23 244.812 1810.74 245.789 1813.48 247.742C1816.41 249.5 1818.65 251.844 1820.21 254.773C1821.97 257.703 1823.14 261.023 1823.73 264.734C1824.51 268.445 1824.9 272.156 1824.9 275.867C1824.9 280.945 1824.32 285.926 1823.14 290.809C1822.17 295.496 1821 300.281 1819.63 305.164C1818.46 310.047 1817.29 314.93 1816.11 319.812C1815.14 324.5 1814.65 329.48 1814.65 334.754V336.512C1814.84 336.902 1815.04 338.074 1815.23 340.027C1815.62 341.785 1815.92 342.859 1816.11 343.25C1816.5 343.25 1817.48 343.348 1819.04 343.543C1820.61 343.543 1821.58 343.543 1821.97 343.543C1823.93 343.543 1825.78 343.543 1827.54 343.543C1829.49 343.348 1831.45 342.859 1833.4 342.078L1889.06 316.297C1889.26 316.297 1889.55 316.297 1889.94 316.297C1890.53 316.102 1890.92 316.004 1891.11 316.004C1893.07 316.004 1894.63 316.59 1895.8 317.762C1897.17 318.934 1897.85 320.496 1897.85 322.449C1897.85 323.426 1897.75 324.402 1897.56 325.379C1897.56 326.16 1897.07 326.941 1896.09 327.723C1894.73 328.699 1892.19 330.066 1888.48 331.824C1884.96 333.582 1881.15 335.535 1877.05 337.684C1872.95 339.832 1869.04 341.883 1865.33 343.836C1861.82 345.789 1859.28 347.059 1857.71 347.645C1854.98 349.207 1851.95 350.672 1848.63 352.039C1845.31 353.211 1841.89 354.383 1838.38 355.555C1834.86 356.727 1831.35 357.703 1827.83 358.484C1824.51 359.07 1821.48 359.363 1818.75 359.363C1814.45 359.363 1810.94 358.68 1808.2 357.312C1805.47 355.75 1803.42 353.797 1802.05 351.453C1800.68 348.914 1799.71 345.984 1799.12 342.664C1798.73 339.148 1798.73 335.535 1799.12 331.824C1795.21 334.949 1791.02 338.27 1786.52 341.785C1782.03 345.301 1777.34 348.523 1772.46 351.453C1767.58 354.383 1762.6 356.922 1757.52 359.07C1752.44 361.219 1747.27 362.293 1741.99 362.293C1739.06 362.293 1736.43 361.609 1734.08 360.242C1731.74 358.68 1730.08 356.336 1729.1 353.211ZM1744.92 347.059C1749.41 347.059 1754.39 345.789 1759.86 343.25C1765.33 340.516 1770.7 337.195 1775.98 333.289C1781.25 329.383 1786.04 325.281 1790.33 320.984C1794.63 316.492 1797.95 312.488 1800.29 308.973C1800.49 303.113 1801.27 297.547 1802.64 292.273C1804.2 286.805 1804.98 281.238 1804.98 275.574C1804.98 275.184 1804.88 274.598 1804.69 273.816C1804.69 273.035 1804.69 272.449 1804.69 272.059C1802.15 269.91 1800 268.641 1798.24 268.25C1796.48 267.859 1794.14 267.664 1791.21 267.664C1790.82 267.664 1789.94 267.664 1788.57 267.664C1787.4 267.664 1786.62 267.762 1786.23 267.957C1785.06 268.934 1783.11 270.789 1780.37 273.523C1777.64 276.062 1774.71 278.895 1771.58 282.02C1768.65 285.145 1765.82 288.074 1763.09 290.809C1760.55 293.543 1758.79 295.398 1757.81 296.375C1757.62 296.375 1757.23 296.766 1756.64 297.547C1756.05 298.133 1755.37 298.914 1754.59 299.891C1754 300.867 1753.42 301.844 1752.83 302.82C1752.44 303.602 1752.15 304.285 1751.95 304.871L1744.92 339.148V347.059Z" fill="white"/>
</g>
<defs>
<clipPath id="clip0_3_2">
<rect width="1912" height="383" fill="white"/>
</clipPath>
</defs>
</svg>
